<svg xmlns="http://www.w3.org/2000/svg" xmlns:svg="http://www.w3.org/2000/svg" id="svg2" width="146.975" height="40" version="1.1" viewBox="0 0 38.887 10.583"><defs id="defs4"><clipPath id="clipPath4574" clipPathUnits="userSpaceOnUse"><circle clip-rule="nonzero" style="isolation:auto;mix-blend-mode:normal;solid-color:#000;solid-opacity:1;marker:none" id="circle4576" cx="93.499" cy="-16.921" r="5.505" fill="#ce5c00" fill-opacity="1" fill-rule="nonzero" stroke="none" stroke-dasharray="none" stroke-dashoffset="0" stroke-linecap="butt" stroke-linejoin="bevel" stroke-miterlimit="4" stroke-opacity="1" stroke-width=".751" color="#000" color-interpolation="sRGB" color-interpolation-filters="linearRGB" color-rendering="auto" display="inline" enable-background="accumulate" image-rendering="auto" opacity="1" overflow="visible" shape-rendering="auto" text-rendering="auto" transform="rotate(60)" visibility="visible"/></clipPath></defs><metadata id="metadata7"/><g id="layer1" transform="translate(-48.766898,-31.073162)"><g id="g4714"><g id="g4595" transform="matrix(0.45619308,0,0,0.45619308,25.303771,-9.145808)"><g id="g4624" transform="matrix(0.92003825,0,0,0.92003825,3.8994993,8.9046582)"><text id="text4225" x="59.2" y="40.575" fill="#555753" fill-opacity="1" stroke="none" stroke-linecap="butt" stroke-linejoin="miter" stroke-opacity="1" stroke-width=".203" font-family="Sans" font-size="8.118" font-style="normal" font-weight="normal" letter-spacing="0" transform="matrix(1.4613695,0,0,1.4613695,-4.7135332,46.848388)" word-spacing="0" xml:space="preserve" style="line-height:125%"><tspan id="tspan4227" x="59.2" y="40.575" fill="#555753" fill-opacity="1" stroke-width=".203" font-family="Montserrat" font-stretch="normal" font-style="normal" font-variant="normal" font-weight="normal" style="-inkscape-font-specification:Montserrat">APPNAME</tspan></text><g id="g4488" transform="matrix(0.13021808,0,0,0.13021808,82.276708,87.323483)"><g id="layer1-0" transform="translate(-266.55899,-345.34488)"><path id="path11" fill="#3c6eb4" d="m 316.7736,397.581 c 0,0 0,0 -20.53889,0 0.3327,4.45245 3.92157,7.77609 8.70715,7.77609 3.38983,0 6.31456,-1.39616 8.64094,-3.65507 0.46553,-0.46679 0.99726,-0.59962 1.59519,-0.59962 0.79781,0 1.59561,0.39932 2.12692,1.06388 0.3327,0.46553 0.53216,0.99726 0.53216,1.52857 0,0.73118 -0.3327,1.52857 -0.93106,2.12734 -2.7919,2.99052 -7.51086,4.98503 -12.16403,4.98503 -8.44149,0 -15.22074,-6.77967 -15.22074,-15.22158 0,-8.44149 6.58022,-15.22074 15.02171,-15.22074 8.37529,0 14.62323,6.51317 14.62323,15.08749 0,1.26418 -1.12924,2.12861 -2.39258,2.12861 z m -12.23065,-11.76512 c -4.45329,0 -7.51085,2.92473 -8.17499,7.17731 10.03626,0 16.35083,0 16.35083,0 -0.59836,-4.05355 -3.78874,-7.17731 -8.17584,-7.17731 z"/><path id="path13" fill="#3c6eb4" d="m 375.46344,410.80807 c -8.44106,0 -15.22074,-6.77968 -15.22074,-15.22159 0,-8.44149 6.77968,-15.22074 15.22074,-15.22074 8.44234,0 15.22159,6.77925 15.22159,15.22074 -4.2e-4,8.44149 -6.77968,15.22159 -15.22159,15.22159 z m 0,-24.65992 c -5.31688,0 -8.77377,4.25427 -8.77377,9.43833 0,5.18364 3.45689,9.43833 8.77377,9.43833 5.31731,0 8.77504,-4.25469 8.77504,-9.43833 -4.2e-4,-5.18406 -3.45773,-9.43833 -8.77504,-9.43833 z"/><path id="path15" fill="#3c6eb4" d="m 412.66183,380.36574 c -4.45963,0 -7.40966,1.319 -10.01391,4.62956 l -0.24036,-1.53995 0,0 c -0.20198,-1.60743 -1.57326,-2.84926 -3.23382,-2.84926 -1.80139,0 -3.26206,1.459 -3.26206,3.26081 0,0.003 0,0.005 0,0.008 l 0,0 0,0.003 0,0 0,23.40712 c 0,1.79464 1.46194,3.25743 3.257,3.25743 1.79465,0 3.25744,-1.46279 3.25744,-3.25743 l 0,-12.56209 c 0,-5.71621 4.98502,-8.57432 10.23613,-8.57432 1.59519,0 2.85726,-1.32953 2.85726,-2.92515 0,-1.59561 -1.26207,-2.85726 -2.85768,-2.85726 z"/><path id="path17" fill="#3c6eb4" d="m 447.02614,395.58648 c 0.0666,-8.17541 -5.78326,-15.22074 -15.222,-15.22074 -8.44192,0 -15.28779,6.77925 -15.28779,15.22074 0,8.44191 6.64684,15.22159 14.68985,15.22159 4.01434,0 7.62682,-2.06621 9.23846,-4.22518 l 0.79359,2.01434 0,0 c 0.42589,1.13177 1.5176,1.93717 2.7978,1.93717 1.65001,0 2.98756,-1.33671 2.99009,-2.98545 l 0,0 0,-7.80687 0,0 0,-4.1556 z m -15.222,9.43833 c -5.31773,0 -8.77419,-4.25469 -8.77419,-9.43833 0,-5.18406 3.45604,-9.43833 8.77419,-9.43833 5.3173,0 8.77419,4.25427 8.77419,9.43833 0,5.18364 -3.45689,9.43833 -8.77419,9.43833 z"/><path id="path19" fill="#3c6eb4" d="m 355.01479,368.3337 c 0,-1.7938 -1.46194,-3.18997 -3.25659,-3.18997 -1.79422,0 -3.25743,1.39659 -3.25743,3.18997 l 0,17.1499 c -1.66097,-3.05756 -5.25026,-5.11786 -9.50495,-5.11786 -8.64052,0 -14.42336,6.51318 -14.42336,15.22074 0,8.70757 5.98229,15.22159 14.42336,15.22159 3.76555,0 7.03057,-1.55429 8.98587,-4.25554 l 0.72317,1.83428 c 0.44782,1.25912 1.64917,2.16024 3.06051,2.16024 1.78621,0 3.24984,-1.45435 3.24984,-3.24815 0,-0.005 0,-0.009 0,-0.0139 l 0,0 0,-38.95128 -4.2e-4,0 z m -15.22116,36.69111 c -5.31731,0 -8.70715,-4.25469 -8.70715,-9.43833 0,-5.18406 3.38984,-9.43833 8.70715,-9.43833 5.31773,0 8.70714,4.0544 8.70714,9.43833 0,5.38309 -3.38941,9.43833 -8.70714,9.43833 z"/><path id="path21" fill="#3c6eb4" d="m 287.21553,365.34023 c -0.59414,-0.0877 -1.19966,-0.13198 -1.80097,-0.13198 -6.73118,0 -12.20746,5.4767 -12.20746,12.20788 l 0,3.8132 -3.98903,0 c -1.46237,0 -2.65908,1.19671 -2.65908,2.65781 0,1.46321 1.19671,2.93738 2.65908,2.93738 l 3.98819,0 0,20.46004 c 0,1.79464 1.46236,3.25743 3.25658,3.25743 1.79507,0 3.25744,-1.46279 3.25744,-3.25743 l 0,-20.46004 4.40986,0 c 1.46194,0 2.65823,-1.47417 2.65823,-2.93738 0,-1.46152 -1.19629,-2.65823 -2.65823,-2.65823 l -4.40733,0 0,-3.8132 c 0,-3.13852 2.55323,-6.11469 5.69175,-6.11469 0.28294,0 0.56757,0.0211 0.84672,0.062 1.78031,0.26355 3.4358,-0.54269 3.70019,-2.32342 0.2627,-1.77904 -0.96606,-3.43538 -2.74594,-3.69935 z"/></g><path id="path2391" fill="#294172" d="m 181.98344,61.675273 2.81558,0 0,0.37898 -1.18152,0 0,2.94935 -0.45254,0 0,-2.94935 -1.18152,0 0,-0.37898 m 3.26144,0 0.67101,0 0.84937,2.26496 0.85381,-2.26496 0.67102,0 0,3.32833 -0.43917,0 0,-2.9226 -0.85828,2.28279 -0.45255,0 -0.85827,-2.28279 0,2.9226 -0.43694,0 0,-3.32833" enable-background="new"/></g></g></g><g id="g4709"><path id="path4688" fill="#3c6eb4" fill-opacity="1" fill-rule="nonzero" stroke="none" stroke-dasharray="none" stroke-dashoffset="0" stroke-linecap="butt" stroke-linejoin="bevel" stroke-miterlimit="4" stroke-opacity="1" stroke-width="1.348" d="m 54.058565,31.073162 a 5.2916663,5.2916663 0 0 0 -5.291667,5.291667 5.2916663,5.2916663 0 0 0 5.291667,5.291666 5.2916663,5.2916663 0 0 0 5.291666,-5.291666 5.2916663,5.2916663 0 0 0 -5.291666,-5.291667 z m 0,0.748275 a 4.5433114,4.5433114 0 0 1 4.543392,4.543392 4.5433114,4.5433114 0 0 1 -4.543392,4.543391 4.5433114,4.5433114 0 0 1 -4.543392,-4.543391 4.5433114,4.5433114 0 0 1 4.543392,-4.543392 z" clip-rule="nonzero" color="#000" color-interpolation="sRGB" color-interpolation-filters="linearRGB" color-rendering="auto" display="inline" enable-background="accumulate" image-rendering="auto" opacity="1" overflow="visible" shape-rendering="auto" text-rendering="auto" visibility="visible" style="isolation:auto;mix-blend-mode:normal;solid-color:#000;solid-opacity:1;marker:none"/><path id="circle4692" fill="#3c6eb4" fill-opacity="1" fill-rule="nonzero" stroke="none" stroke-dasharray="none" stroke-dashoffset="0" stroke-linecap="butt" stroke-linejoin="bevel" stroke-miterlimit="4" stroke-opacity="1" stroke-width=".966" d="m 54.058565,32.569711 a 3.7949568,3.7949568 0 0 0 -3.794601,3.795118 3.7949568,3.7949568 0 0 0 3.794601,3.795117 3.7949568,3.7949568 0 0 0 3.795117,-3.795117 3.7949568,3.7949568 0 0 0 -3.795117,-3.795118 z m 0,1.964738 a 1.8305259,1.8305259 0 0 1 1.830896,1.83038 1.8305259,1.8305259 0 0 1 -1.830896,1.830379 1.8305259,1.8305259 0 0 1 -1.83038,-1.830379 1.8305259,1.8305259 0 0 1 1.83038,-1.83038 z" clip-rule="nonzero" color="#000" color-interpolation="sRGB" color-interpolation-filters="linearRGB" color-rendering="auto" display="inline" enable-background="accumulate" image-rendering="auto" opacity="1" overflow="visible" shape-rendering="auto" text-rendering="auto" visibility="visible" style="isolation:auto;mix-blend-mode:normal;solid-color:#000;solid-opacity:1;marker:none"/><circle id="circle4695" cx="54.059" cy="36.365" r="1.269" fill="#3c6eb4" fill-opacity="1" fill-rule="nonzero" stroke="none" stroke-dasharray="none" stroke-dashoffset="0" stroke-linecap="butt" stroke-linejoin="bevel" stroke-miterlimit="4" stroke-opacity="1" stroke-width=".323" clip-rule="nonzero" color="#000" color-interpolation="sRGB" color-interpolation-filters="linearRGB" color-rendering="auto" display="inline" enable-background="accumulate" image-rendering="auto" opacity="1" overflow="visible" shape-rendering="auto" text-rendering="auto" visibility="visible" style="isolation:auto;mix-blend-mode:normal;solid-color:#000;solid-opacity:1;marker:none"/></g></g></g></svg>